<?xml version="1.0"?>
<svg xmlns="http://www.w3.org/2000/svg" xmlns:xlink="http://www.w3.org/1999/xlink" xmlns:svgjs="http://svgjs.com/svgjs" version="1.1" width="512" height="512" x="0" y="0" viewBox="0 0 25 25" style="enable-background:new 0 0 512 512" xml:space="preserve" class=""><g><g xmlns="http://www.w3.org/2000/svg"><path d="m15.477 9.318c-.195.195-.195.512 0 .707.661.661 1.025 1.54 1.025 2.475s-.364 1.813-1.025 2.475c-.195.195-.195.512 0 .707.098.098.226.146.354.146s.256-.049.354-.146c.85-.85 1.318-1.979 1.318-3.182s-.468-2.332-1.318-3.182c-.196-.195-.513-.195-.708 0z" fill="#ffffff" data-original="#000000" style="" class=""/><path d="m19.012 6.489c-.195-.195-.512-.195-.707 0s-.195.512 0 .707c2.924 2.925 2.924 7.684 0 10.607-.195.195-.195.512 0 .707.098.098.226.146.354.146s.256-.049.354-.146c3.313-3.314 3.313-8.706-.001-12.021z" fill="#ffffff" data-original="#000000" style="" class=""/><path d="m13.222 6.051c-.171-.084-.375-.062-.527.055l-4.364 3.394h-4.329c-.276 0-.5.224-.5.5v5c0 .276.224.5.5.5h4.329l4.364 3.395c.09.069.198.105.307.105.075 0 .15-.017.22-.051.171-.084.28-.258.28-.449v-12c0-.191-.109-.365-.28-.449zm-.72 11.427-3.693-2.872c-.088-.069-.196-.106-.307-.106h-4v-4h4c.111 0 .219-.037.307-.105l3.693-2.872z" fill="#ffffff" data-original="#000000" style="" class=""/></g></g></svg>
